<svg width="89" height="89" viewBox="0 0 89 89" fill="none" xmlns="http://www.w3.org/2000/svg">
<path d="M86.3824 44.5C86.4047 35.6254 83.5889 26.9761 78.3462 19.8156C74.4626 14.5104 69.3937 10.1855 63.5434 7.18541H63.4649C62.6665 6.77967 61.855 6.4132 61.0305 6.05982C55.0593 3.49454 48.573 2.35403 42.0849 2.72854C35.5968 3.10305 29.2849 4.98229 23.6485 8.21758C18.0122 11.4529 13.206 15.9554 9.61038 21.369C6.01473 26.7826 3.72823 32.9587 2.93179 39.4086C2.84018 40.1154 2.77474 40.8353 2.72238 41.5551C2.61768 42.5236 2.61768 43.5183 2.61768 44.5C2.61595 53.153 5.29443 61.5943 10.2849 68.6632C15.2755 75.7322 22.333 81.082 30.4874 83.977C38.6418 86.8721 47.4928 87.1704 55.8236 84.8309C64.1544 82.4914 71.5561 77.629 77.0112 70.912C83.0705 63.4427 86.379 54.118 86.3824 44.5ZM75.6631 68.3336C74.7449 67.7459 73.9853 66.9413 73.4512 65.9908C72.848 64.8251 72.5072 63.5415 72.453 62.2301C72.3987 60.9186 72.6322 59.6112 73.1371 58.3997C73.3596 57.8369 73.6214 57.2872 73.8831 56.7244C74.8676 55.0483 75.3661 53.1314 75.3228 51.1881C75.1946 50.2914 74.9618 49.4129 74.6292 48.5704C74.2092 47.7376 74.0366 46.802 74.1318 45.8742C74.361 45.2955 74.6936 44.7633 75.1134 44.3036C75.7936 43.551 76.2987 42.657 76.5924 41.686C77.2861 38.6888 74.603 36.1889 71.7366 35.3513C70.9775 35.1157 70.2053 34.9717 69.4462 34.8147C68.0905 34.6514 66.784 34.2055 65.6114 33.5058C65.0021 33.0672 64.5228 32.4718 64.2243 31.783C63.9259 31.0941 63.8193 30.3373 63.9159 29.5928C64.0124 28.8483 64.3086 28.1437 64.773 27.5538C65.2374 26.9639 65.8527 26.5106 66.5537 26.2419C67.8545 25.8713 69.2171 25.7689 70.5587 25.9408H71.3309C73.4459 26.1984 75.5797 25.6415 77.2991 24.3833C77.5132 24.198 77.6985 23.9819 77.8489 23.742C82.0612 30.5108 84.1088 38.4033 83.7182 46.3662C83.3277 54.3291 80.5176 61.9834 75.6631 68.3075V68.3336ZM44.5 5.23526C49.7036 5.24424 54.8541 6.28057 59.6562 8.28482L59.9441 8.84761C62.6665 15.4572 52.6671 22.0798 46.4633 25.4435L45.4031 26.0325L39.3433 29.3176C37.3137 30.2608 35.4902 31.5951 33.9771 33.2441C33.1291 34.2188 32.5785 35.4163 32.3906 36.6946C32.2026 37.9728 32.3853 39.2782 32.9169 40.4557C35.2466 44.7748 41.5159 43.5576 43.5708 43.165C45.6256 42.7723 50.1149 42.2095 51.175 44.8141C51.6724 45.992 51.8949 47.4317 51.2666 48.2301C46.3716 53.9889 46.1884 59.6169 46.0314 65.0485C46.0353 67.6383 45.7721 70.2216 45.2461 72.7575C44.6833 75.1264 43.9372 76.396 42.864 76.5138C41.5552 76.7101 40.4689 74.7469 40.2464 73.281C40.1547 72.7313 40.1024 72.1816 40.0369 71.6319C40.003 69.7758 39.4597 67.9648 38.4664 66.3966C37.3753 65.1363 36.0035 64.15 34.4614 63.5172C33.1299 63.078 31.9861 62.2016 31.2155 61.0304C30.9027 60.0175 30.8442 58.9432 31.0453 57.9023C31.2611 56.5965 31.2076 55.2603 30.8883 53.9758C30.2379 52.2861 29.1214 50.8157 27.6686 49.7353C26.8498 49.0746 26.1312 48.2987 25.5352 47.4317C24.2264 45.1413 24.9986 42.1179 26.1372 38.7019C27.1974 35.5214 28.2968 30.9406 25.6661 27.747C24.9831 26.9343 24.1128 26.3 23.13 25.8987C22.1472 25.4974 21.0816 25.3411 20.025 25.4435C18.6459 25.5256 17.3038 25.922 16.1015 26.6026C14.8992 27.2832 13.8685 28.2298 13.0883 29.37C12.3549 30.5814 11.7412 31.8614 11.2559 33.1917C10.3136 35.5214 9.50209 37.5501 7.66974 38.1653C7.02812 38.2973 6.37464 38.3631 5.71959 38.3616C7.20375 29.1373 11.919 20.741 19.023 14.6727C26.1271 8.60446 35.1571 5.25945 44.5 5.23526ZM44.5 83.7647C34.0864 83.7647 24.0993 79.6279 16.7357 72.2643C9.37213 64.9007 5.23532 54.9136 5.23532 44.5C5.23532 43.5838 5.23532 42.6545 5.32694 41.7383L5.40547 40.9923C6.44926 41.0183 7.492 40.9084 8.50738 40.6651C11.4784 39.6442 12.6564 36.7386 13.7427 34.121C14.1653 32.9531 14.6954 31.8271 15.3264 30.7573C15.8832 29.9669 16.6116 29.3127 17.457 28.8435C18.3024 28.3744 19.2429 28.1024 20.2083 28.0481C20.8522 27.9823 21.5027 28.0662 22.1088 28.2932C22.715 28.5202 23.2605 28.8843 23.7028 29.3569C25.4828 31.5295 24.6452 35.0241 23.7028 37.825C22.6558 40.94 21.2422 45.2198 23.3233 48.7144C24.0416 49.8153 24.9244 50.7996 25.9409 51.6331C26.987 52.404 27.8165 53.4318 28.3491 54.6172C28.5349 55.5724 28.5349 56.5544 28.3491 57.5097C28.0795 59.0058 28.2151 60.5467 28.7418 61.9728C29.7299 63.7153 31.3081 65.0475 33.1918 65.7291C34.3672 66.1894 35.4232 66.9098 36.2806 67.8363C36.9646 69.0333 37.3338 70.3843 37.3539 71.7628C37.3539 72.3779 37.4716 72.9931 37.5764 73.582C38.0344 76.3044 39.9322 79.0136 42.6153 79.0136C42.7896 79.0264 42.9646 79.0264 43.1389 79.0136C46.4502 78.5817 47.4187 74.5767 47.7328 73.2548C48.2946 70.551 48.5796 67.797 48.5836 65.0354C48.7537 59.8001 48.9239 54.8789 53.2299 49.8269C54.6565 48.1254 54.3293 45.547 53.544 43.6885C52.2352 40.5735 48.4789 39.4348 43.0734 40.4819C38.8066 41.3064 36.1628 40.8484 35.2205 39.1076C34.9359 38.386 34.8586 37.5993 34.9974 36.8361C35.1361 36.0729 35.4854 35.3637 36.0058 34.7885C37.3128 33.4515 38.8632 32.3765 40.5736 31.6211L46.6203 28.3229L47.6936 27.747C58.6615 21.805 63.8444 15.7058 62.889 9.81614C68.0216 12.5384 72.4905 16.3593 75.9772 21.0066C75.9118 21.962 75.7547 22.3154 75.6108 22.4332C74.3826 23.2273 72.9113 23.5569 71.4618 23.3625H70.7158C69.0131 23.1554 67.2859 23.3161 65.6506 23.8336C64.5159 24.2758 63.5213 25.0155 62.7712 25.9749C62.0211 26.9343 61.5433 28.078 61.388 29.2859C61.2326 30.4937 61.4055 31.7211 61.8884 32.8391C62.3714 33.9571 63.1465 34.9243 64.1324 35.6392C65.6064 36.5584 67.2638 37.1436 68.9881 37.3538C69.708 37.4978 70.3886 37.6417 71.043 37.825C72.7575 38.3354 74.3805 39.7489 74.0794 41.0709C73.871 41.6792 73.5365 42.2367 73.0978 42.7069C72.4446 43.4348 71.9499 44.2905 71.645 45.2198C71.3788 46.6603 71.5711 48.148 72.1947 49.4735C72.4607 50.1119 72.6496 50.7798 72.7575 51.4629C72.7322 52.9266 72.3214 54.3577 71.5665 55.6119C71.2655 56.2139 70.9775 56.8291 70.7419 57.4442C70.0974 59.017 69.8044 60.7117 69.8835 62.4095C69.9626 64.1074 70.412 65.7675 71.2 67.2735C71.9073 68.5078 72.8823 69.5677 74.0533 70.3754C70.3734 74.5934 65.8304 77.9717 60.7317 80.2817C55.633 82.5918 50.0976 83.7795 44.5 83.7647Z" fill="black"/>
</svg>
